<svg width="124" height="28" viewBox="0 0 124 28" fill="none" xmlns="http://www.w3.org/2000/svg">
<path d="M15.4872 22.0372H9.37397C9.09075 22.0372 8.86115 21.8065 8.86115 21.522V6.47796C8.86115 6.31041 8.94224 6.15331 9.07858 6.05679C9.21489 5.96028 9.38945 5.93648 9.54648 5.99277L15.6597 8.18669C15.8638 8.25995 16 8.45415 16 8.67188V21.522C16 21.8065 15.7704 22.0372 15.4872 22.0372ZM9.88679 21.0068H14.9744V9.03492L9.88679 7.2091V21.0068Z" fill="#0C111D"/>
<path d="M9.37396 6.47803V21.522H15.4872V8.67195L9.37396 6.47803ZM11.7703 19.9564H10.8814V18.5707H11.7703V19.9564ZM11.7703 16.7878H10.8814V15.4021H11.7703V16.7878ZM11.7703 13.6537H10.8814V12.268H11.7703V13.6537ZM11.7703 10.4852H10.8814V9.09946H11.7703V10.4852ZM13.9635 19.9564H13.0746V18.5707H13.9635V19.9564ZM13.9635 16.7878H13.0746V15.4021H13.9635V16.7878ZM13.9635 13.6537H13.0746V12.268H13.9635V13.6537Z" fill="#0C111D"/>
<path d="M6.62605 22.0372H0.512821C0.229607 22.0372 0 21.8065 0 21.522V8.67191C0 8.45418 0.136205 8.25998 0.340308 8.18672L6.45354 5.9928C6.61056 5.93644 6.78509 5.96031 6.92144 6.05682C7.05778 6.15334 7.13887 6.31041 7.13887 6.47799V21.522C7.13887 21.8065 6.90927 22.0372 6.62605 22.0372ZM1.02564 21.0068H6.11323V7.20913L1.02564 9.03495V21.0068Z" fill="#0C111D"/>
<path d="M9.37397 21.0068H6.62604V22.0372H9.37397V21.0068Z" fill="#0C111D"/>
<path d="M9.37397 8.95166H6.62604V9.98207H9.37397V8.95166Z" fill="#0C111D"/>
<path d="M5.18696 9.09924H4.16132V10.4849H5.18696V9.09924Z" fill="#0C111D"/>
<path d="M5.18696 12.2677H4.16132V13.6534H5.18696V12.2677Z" fill="#0C111D"/>
<path d="M5.18696 15.402H4.16132V16.7877H5.18696V15.402Z" fill="#0C111D"/>
<path d="M2.99372 12.2677H1.96808V13.6534H2.99372V12.2677Z" fill="#0C111D"/>
<path d="M2.99372 15.402H1.96808V16.7877H2.99372V15.402Z" fill="#0C111D"/>
<path d="M5.18696 18.5704H4.16132V19.9561H5.18696V18.5704Z" fill="#0C111D"/>
<path d="M2.99372 18.5704H1.96808V19.9561H2.99372V18.5704Z" fill="#0C111D"/>
<path d="M25.746 19V6.418H27.87V16.984H33.612V19H25.746ZM44.5633 15.094H37.0573C37.1053 15.79 37.4233 16.354 38.0113 16.786C38.5993 17.206 39.2713 17.416 40.0273 17.416C41.2273 17.416 42.1393 17.038 42.7633 16.282L43.9153 17.542C42.8833 18.61 41.5393 19.144 39.8833 19.144C38.5393 19.144 37.3933 18.7 36.4453 17.812C35.5093 16.912 35.0413 15.712 35.0413 14.212C35.0413 12.7 35.5213 11.5 36.4813 10.612C37.4413 9.724 38.5693 9.28 39.8653 9.28C41.1733 9.28 42.2833 9.676 43.1953 10.468C44.1073 11.248 44.5633 12.328 44.5633 13.708V15.094ZM37.0573 13.51H42.5473C42.5473 12.706 42.2953 12.088 41.7913 11.656C41.2873 11.224 40.6633 11.008 39.9193 11.008C39.1873 11.008 38.5273 11.236 37.9393 11.692C37.3513 12.136 37.0573 12.742 37.0573 13.51ZM54.5383 19H52.7023V17.722C51.9103 18.67 50.8483 19.144 49.5163 19.144C48.5203 19.144 47.6923 18.862 47.0323 18.298C46.3843 17.734 46.0603 16.984 46.0603 16.048C46.0603 15.1 46.4083 14.392 47.1043 13.924C47.8003 13.456 48.7423 13.222 49.9303 13.222H52.5403V12.862C52.5403 11.59 51.8323 10.954 50.4163 10.954C49.5283 10.954 48.6043 11.278 47.6443 11.926L46.7443 10.666C47.9083 9.742 49.2283 9.28 50.7043 9.28C51.8323 9.28 52.7503 9.568 53.4583 10.144C54.1783 10.708 54.5383 11.602 54.5383 12.826V19ZM52.5223 15.436V14.626H50.2543C48.8023 14.626 48.0763 15.082 48.0763 15.994C48.0763 16.462 48.2563 16.822 48.6163 17.074C48.9763 17.314 49.4743 17.434 50.1103 17.434C50.7583 17.434 51.3223 17.254 51.8023 16.894C52.2823 16.534 52.5223 16.048 52.5223 15.436ZM64.1667 16.138C64.1667 17.05 63.8367 17.782 63.1767 18.334C62.5167 18.874 61.6707 19.144 60.6387 19.144C59.9427 19.144 59.2167 19.018 58.4607 18.766C57.7167 18.514 57.0567 18.16 56.4807 17.704L57.4527 16.138C58.5687 16.978 59.6487 17.398 60.6927 17.398C61.1487 17.398 61.5087 17.296 61.7727 17.092C62.0367 16.876 62.1687 16.606 62.1687 16.282C62.1687 15.802 61.5327 15.37 60.2607 14.986C60.1647 14.95 60.0927 14.926 60.0447 14.914C58.0527 14.374 57.0567 13.474 57.0567 12.214C57.0567 11.326 57.3987 10.618 58.0827 10.09C58.7787 9.55 59.6787 9.28 60.7827 9.28C61.8867 9.28 62.9307 9.604 63.9147 10.252L63.1587 11.746C62.3787 11.23 61.5327 10.972 60.6207 10.972C60.1407 10.972 59.7507 11.062 59.4507 11.242C59.1507 11.41 59.0007 11.668 59.0007 12.016C59.0007 12.328 59.1567 12.556 59.4687 12.7C59.6847 12.808 59.9847 12.91 60.3687 13.006C60.7647 13.102 61.1127 13.198 61.4127 13.294C61.7127 13.39 62.0007 13.498 62.2767 13.618C62.5647 13.738 62.8707 13.906 63.1947 14.122C63.8427 14.554 64.1667 15.226 64.1667 16.138ZM75.3602 15.094H67.8542C67.9022 15.79 68.2202 16.354 68.8082 16.786C69.3962 17.206 70.0682 17.416 70.8242 17.416C72.0242 17.416 72.9362 17.038 73.5602 16.282L74.7122 17.542C73.6802 18.61 72.3362 19.144 70.6802 19.144C69.3362 19.144 68.1902 18.7 67.2422 17.812C66.3062 16.912 65.8382 15.712 65.8382 14.212C65.8382 12.7 66.3182 11.5 67.2782 10.612C68.2382 9.724 69.3662 9.28 70.6622 9.28C71.9702 9.28 73.0802 9.676 73.9922 10.468C74.9042 11.248 75.3602 12.328 75.3602 13.708V15.094ZM67.8542 13.51H73.3442C73.3442 12.706 73.0922 12.088 72.5882 11.656C72.0842 11.224 71.4602 11.008 70.7162 11.008C69.9842 11.008 69.3242 11.236 68.7362 11.692C68.1482 12.136 67.8542 12.742 67.8542 13.51ZM86.6851 6.418C88.5931 6.418 89.9851 6.784 90.8611 7.516C91.7371 8.248 92.1751 9.376 92.1751 10.9C92.1751 12.424 91.7251 13.54 90.8251 14.248C89.9371 14.956 88.5691 15.31 86.7211 15.31H84.4891V19H82.3651V6.418H86.6851ZM86.9551 13.384C88.1311 13.384 88.9291 13.162 89.3491 12.718C89.7811 12.262 89.9971 11.602 89.9971 10.738C89.9971 9.862 89.7271 9.244 89.1871 8.884C88.6471 8.524 87.8011 8.344 86.6491 8.344H84.4891V13.384H86.9551ZM96.3978 19H94.3818V9.424H96.3978V19ZM94.5078 7.516C94.2558 7.264 94.1298 6.964 94.1298 6.616C94.1298 6.268 94.2558 5.968 94.5078 5.716C94.7598 5.464 95.0598 5.338 95.4078 5.338C95.7558 5.338 96.0558 5.464 96.3078 5.716C96.5598 5.968 96.6858 6.268 96.6858 6.616C96.6858 6.964 96.5598 7.264 96.3078 7.516C96.0558 7.768 95.7558 7.894 95.4078 7.894C95.0598 7.894 94.7598 7.768 94.5078 7.516ZM100.851 9.424L102.903 12.574L105.027 9.424H107.421L104.073 14.104L107.565 19H105.081L102.795 15.814L100.563 19H98.2053L101.607 14.122L98.3853 9.424H100.851ZM111.374 19H109.358V9.424H111.374V19ZM109.484 7.516C109.232 7.264 109.106 6.964 109.106 6.616C109.106 6.268 109.232 5.968 109.484 5.716C109.736 5.464 110.036 5.338 110.384 5.338C110.732 5.338 111.032 5.464 111.284 5.716C111.536 5.968 111.662 6.268 111.662 6.616C111.662 6.964 111.536 7.264 111.284 7.516C111.032 7.768 110.732 7.894 110.384 7.894C110.036 7.894 109.736 7.768 109.484 7.516ZM123.208 15.094H115.702C115.75 15.79 116.068 16.354 116.656 16.786C117.244 17.206 117.916 17.416 118.672 17.416C119.872 17.416 120.784 17.038 121.408 16.282L122.56 17.542C121.528 18.61 120.184 19.144 118.528 19.144C117.184 19.144 116.038 18.7 115.09 17.812C114.154 16.912 113.686 15.712 113.686 14.212C113.686 12.7 114.166 11.5 115.126 10.612C116.086 9.724 117.214 9.28 118.51 9.28C119.818 9.28 120.928 9.676 121.84 10.468C122.752 11.248 123.208 12.328 123.208 13.708V15.094ZM115.702 13.51H121.192C121.192 12.706 120.94 12.088 120.436 11.656C119.932 11.224 119.308 11.008 118.564 11.008C117.832 11.008 117.172 11.236 116.584 11.692C115.996 12.136 115.702 12.742 115.702 13.51Z" fill="#0C111D"/>
</svg>
