<svg xmlns="http://www.w3.org/2000/svg" width="18" height="18" viewBox="0 0 18 18" fill="none">
    <path d="M2.04556 3.28722C0.744302 4.87131 0.0228359 6.85218 0.000532652 8.90208C-0.0217706 10.952 0.656426 12.9481 1.92291 14.5601C3.1894 16.1721 4.96828 17.3035 6.96522 17.767C8.96217 18.2304 11.0575 17.9983 12.9046 17.1089C14.7516 16.2195 16.2397 14.7262 17.1226 12.876C18.0055 11.0259 18.2303 8.92973 17.7598 6.93443C17.2893 4.93912 16.1517 3.16423 14.5352 1.90342C12.9187 0.642603 10.9203 -0.0285747 8.87046 0.000932323L8.90469 2.37858C10.4129 2.35687 11.8834 2.85071 13.0727 3.77841C14.2621 4.7061 15.0992 6.01205 15.4453 7.48017C15.7915 8.9483 15.6261 10.4906 14.9765 11.852C14.3269 13.2133 13.232 14.312 11.8729 14.9664C10.5139 15.6208 8.97217 15.7917 7.50283 15.4506C6.0335 15.1096 4.72462 14.2772 3.79275 13.0911C2.86089 11.905 2.36188 10.4363 2.37829 8.92795C2.3947 7.41965 2.92554 5.96215 3.883 4.7966L2.04556 3.28722Z" fill="url(#paint0_linear_446_535)"/>
    <defs>
    <linearGradient id="paint0_linear_446_535" x1="7" y1="2" x2="4.52279" y2="15.5953" gradientUnits="userSpaceOnUse">
    <stop stop-color="#5998A9"/>
    <stop offset="1" stop-color="#84A39D"/>
    </linearGradient>
    </defs>
    </svg>